<svg aria-hidden="true" style="position: absolute; width: 0; height: 0; overflow: hidden;" version="1.1" xmlns="http://www.w3.org/2000/svg" xmlns:xlink="http://www.w3.org/1999/xlink">
<defs>
<symbol id="icon-globe" viewBox="0 0 24 24">
<path d="M11 20h-4c-0.553 0-1 0.447-1 1s0.447 1 1 1h10c0.553 0 1-0.447 1-1s-0.447-1-1-1h-4v-1.23c1.64-0.371 3.146-1.188 4.363-2.406 1.7-1.7 2.637-3.96 2.637-6.364 0-2.067-0.692-4.029-1.968-5.619l0.675-0.673c0.391-0.391 0.391-1.023 0.001-1.415-0.391-0.391-1.024-0.39-1.415-0.001l-2.052 2.049 0.708 0.708c1.322 1.322 2.051 3.081 2.051 4.951s-0.729 3.627-2.051 4.949-3.079 2.051-4.949 2.051-3.627-0.729-4.949-2.051c-0.391-0.391-1.023-0.391-1.414 0-0.391 0.39-0.391 1.023 0 1.414 1.699 1.7 3.959 2.637 6.363 2.637v1z"></path>
<path d="M11 4c1.657 0 3.157 0.672 4.243 1.757 1.085 1.086 1.757 2.586 1.757 4.243 0 1.656-0.672 3.156-1.757 4.242-1.086 1.086-2.586 1.758-4.243 1.758s-3.157-0.672-4.242-1.757c-1.085-1.086-1.756-2.586-1.756-4.243s0.671-3.157 1.756-4.243c1.085-1.085 2.584-1.757 4.242-1.757z"></path>
</symbol>
<symbol id="icon-light-bulb" viewBox="0 0 20 20">
<path d="M7.186 19.172c0.789 0.51 1.701 0.855 2.814 0.828 1.111 0.027 2.025-0.318 2.814-0.828l-0.017-2.172h-5.594l-0.017 2.172zM12.697 16c0-4.357 4.63-5.848 4.283-10.188-0.218-2.738-2.073-5.81-6.98-5.81s-6.762 3.072-6.981 5.811c-0.347 4.339 4.284 5.83 4.284 10.187h5.394zM5 6c0.207-2.598 2.113-4 5-4s4.654 1.371 4.861 3.969c0.113 1.424-0.705 2.373-1.809 3.926-0.814 1.146-1.603 2.343-2.052 4.105h-2c-0.449-1.762-1.238-2.959-2.053-4.106-1.103-1.552-2.061-2.47-1.947-3.894z"></path>
</symbol>
<symbol id="icon-database" viewBox="0 0 32 32">
<path d="M16 0c-8.837 0-16 2.239-16 5v4c0 2.761 7.163 5 16 5s16-2.239 16-5v-4c0-2.761-7.163-5-16-5z"></path>
<path d="M16 17c-8.837 0-16-2.239-16-5v6c0 2.761 7.163 5 16 5s16-2.239 16-5v-6c0 2.761-7.163 5-16 5z"></path>
<path d="M16 26c-8.837 0-16-2.239-16-5v6c0 2.761 7.163 5 16 5s16-2.239 16-5v-6c0 2.761-7.163 5-16 5z"></path>
</symbol>
<symbol id="icon-mobile" viewBox="0 0 32 32">
<path d="M23 0h-14c-1.65 0-3 1.35-3 3v26c0 1.65 1.35 3 3 3h14c1.65 0 3-1.35 3-3v-26c0-1.65-1.35-3-3-3zM12 1.5h8v1h-8v-1zM16 30c-1.105 0-2-0.895-2-2s0.895-2 2-2 2 0.895 2 2-0.895 2-2 2zM24 24h-16v-20h16v20z"></path>
</symbol>
<symbol id="icon-pencil2" viewBox="0 0 32 32">
<path d="M12 20l4-2 14-14-2-2-14 14-2 4zM9.041 27.097c-0.989-2.085-2.052-3.149-4.137-4.137l3.097-8.525 4-2.435 12-12h-6l-12 12-6 20 20-6 12-12v-6l-12 12-2.435 4z"></path>
</symbol>
</defs>
</svg>
